# xmcd
#
# Track frame offsets:
#	150
#	14175
#	30075
#	42047
#	59597
#	76697
#	91782
#	107307
#	122907
#	137157
#	149607
#	166107
#
# Disc length: 2470 seconds
#
# Revision: 0
# Processed by: cddbd v1.5.2PL0 Copyright (c) Steve Scherf et al.
# Submitted via: EasyCDDAExtractor 16.1.0.1
#
DISCID=9209a40c
DTITLE=Jaci Rae - Can't Push A River
DYEAR=2007
DGENRE=Country
TTITLE0=Goin' Till I'm Gone
TTITLE1=A Broken Wing
TTITLE2=Don't Think Twice
TTITLE3=Where I Used To Have A Heart
TTITLE4=Lost In Texas
TTITLE5=Crazy
TTITLE6=Can't Push A River
TTITLE7=Something's Going To Happen
TTITLE8=Under The Rainbow
TTITLE9=Boots On Her Feet
TTITLE10=Completely
TTITLE11=When The Time Comes
EXTD=
EXTT0=
EXTT1=
EXTT2=
EXTT3=
EXTT4=
EXTT5=
EXTT6=
EXTT7=
EXTT8=
EXTT9=
EXTT10=
EXTT11=
PLAYORDER=
